<svg data-icon-name="clipboard-add" data-style="line" icon_origin_id="15662" viewBox="0 0 24 24" xmlns="http://www.w3.org/2000/svg" data-name="Line Color" id="clipboard-add" class="icon line" width="48" height="48"><path style="fill: none; stroke: rgb(101, 45, 144); stroke-linecap: round; stroke-linejoin: round; stroke-width: 1;" d="M14,5h3a1,1,0,0,1,1,1v7" id="primary"></path><path style="fill: none; stroke: rgb(101, 45, 144); stroke-linecap: round; stroke-linejoin: round; stroke-width: 1;" d="M8,5H5A1,1,0,0,0,4,6V20a1,1,0,0,0,1,1h7" data-name="primary" id="primary-2"></path><path style="fill: none; stroke: rgb(246, 146, 30); stroke-linecap: round; stroke-linejoin: round; stroke-width: 1;" d="M14,4a1,1,0,0,0-1-1H9A1,1,0,0,0,8,4V7h6ZM8,17h4M8,13h6m2,6h4m-2-2v4" id="secondary"></path></svg>